<svg viewBox="0 0 16 16" xmlns="http://www.w3.org/2000/svg" fit="" height="1em" width="1em"
    preserveAspectRatio="xMidYMid meet" focusable="false">
    <g id="aqf1.Base基础/1.icon图标/2.normal/部门" stroke-width="1" fill-rule="evenodd">
        <path
            d="M9 1a1 1 0 0 1 1 1v2a1 1 0 0 1-1 1h-.39l-.016 2.138H11.5a2.1 2.1 0 0 1 2.095 1.95l.005.15V11h.4a1 1 0 0 1 1 1v2a1 1 0 0 1-1 1h-2a1 1 0 0 1-1-1v-2a1 1 0 0 1 1-1h.4V9.238a.9.9 0 0 0-.787-.893l-.113-.007h-7a.9.9 0 0 0-.893.787l-.007.113V11H4a1 1 0 0 1 1 1v2a1 1 0 0 1-1 1H2a1 1 0 0 1-1-1v-2a1 1 0 0 1 1-1h.4V9.238a2.1 2.1 0 0 1 1.95-2.094l.15-.006h2.894L7.41 5H7a1 1 0 0 1-1-1V2a1 1 0 0 1 1-1h2zm4.8 11.2h-1.6v1.6h1.6v-1.6zm-10 0H2.2v1.6h1.6v-1.6zm5-10H7.2v1.6h1.6V2.2z"
            id="aqf形状结合"></path>
    </g>
</svg>