<?xml version="1.0" standalone="no"?><!DOCTYPE svg PUBLIC "-//W3C//DTD SVG 1.1//EN" "http://www.w3.org/Graphics/SVG/1.1/DTD/svg11.dtd"><svg t="1637032288310" class="icon" viewBox="0 0 1024 1024" version="1.1" xmlns="http://www.w3.org/2000/svg" p-id="2457" xmlns:xlink="http://www.w3.org/1999/xlink" width="200" height="200"><defs><style type="text/css"></style></defs><path d="M809.246403 771.926938 777.737782 803.458071 924.965961 950.667831 956.476629 919.157163Z" p-id="2458"></path><path d="M454.878536 70.285786C239.51556 70.285786 64.93236 244.847497 64.93236 460.231963c0 215.341486 174.583201 389.945153 389.945153 389.945153 215.362976 0 389.9472-174.603667 389.9472-389.945153C844.825736 244.847497 670.241512 70.285786 454.878536 70.285786zM454.878536 805.611108c-190.750415 0-345.381192-154.626683-345.381192-345.379145 0-190.751439 154.629753-345.380168 345.381192-345.380168 190.752462 0 345.382215 154.62873 345.382215 345.380168C800.259728 650.983401 645.630998 805.611108 454.878536 805.611108z" p-id="2459"></path></svg>