<svg viewBox="0 0 16 16" xmlns="http://www.w3.org/2000/svg"  height="1em" width="1em" 
    preserveAspectRatio="xMidYMid meet" focusable="false">
    <g id="azeaction/user-add" stroke-width="1" >
        <path
            d="M7.9.4a4.1 4.1 0 1 1-.265 8.192.593.593 0 0 1-.268.126 6.411 6.411 0 0 0-4.624 3.698A6.375 6.375 0 0 0 2.2 15 .6.6 0 0 1 1 15c0-1.07.222-2.11.645-3.069a7.622 7.622 0 0 1 4.069-3.963A4.1 4.1 0 0 1 7.9.4zm4.6 9.9a.6.6 0 0 1 .592.503l.008.097-.001 1.399 1.401.001a.6.6 0 0 1 .592.503l.008.097a.6.6 0 0 1-.503.592l-.097.008-1.401-.001.001 1.401a.6.6 0 0 1-.503.592l-.097.008a.6.6 0 0 1-.592-.503L11.9 14.9v-1.401l-1.4.001a.6.6 0 0 1-.592-.503L9.9 12.9a.6.6 0 0 1 .503-.592l.097-.008h1.4v-1.4a.6.6 0 0 1 .503-.592l.097-.008zM7.9 1.6a2.9 2.9 0 1 0 0 5.8 2.9 2.9 0 0 0 0-5.8z" 
            id="aze形状结合"></path>
    </g>
</svg>