<?xml version="1.0" encoding="UTF-8"?>
<svg width="16px" height="16px" viewBox="0 0 16 16" version="1.1" xmlns="http://www.w3.org/2000/svg" xmlns:xlink="http://www.w3.org/1999/xlink">
    <title>normal/user-group-avatar@1x</title>
    <g id="团队" stroke="none" stroke-width="1" fill="none" fill-rule="evenodd">
        <path d="M8,0 C12.418278,-8.11624501e-16 16,3.581722 16,8 C16,12.418278 12.418278,16 8,16 C3.581722,16 5.41083001e-16,12.418278 0,8 C-5.41083001e-16,3.581722 3.581722,8.11624501e-16 8,0 Z M6.94814892,4.5 C5.8297723,4.5 4.92314892,5.40662338 4.92314892,6.525 C4.92314892,7.17754041 5.23179842,7.75799186 5.71074948,8.1273513 C4.58627683,8.60821226 3.79861678,9.72458136 3.80000182,11.025 C3.80000182,11.2113961 3.95110572,11.3625 4.13750182,11.3625 L4.20551985,11.3556432 C4.3593129,11.3241726 4.47500182,11.1880966 4.47500182,11.025 L4.473,11.01 L4.47841342,10.8622681 C4.55871908,9.62501422 5.54816314,8.63557016 6.78541699,8.5552645 L6.942,8.549 L6.96130368,8.55003422 C8.32215601,8.55711636 9.42316527,9.66248284 9.42824334,11.025 C9.42824334,11.2113961 9.57934724,11.3625 9.76574334,11.3625 C9.95213944,11.3625 10.1032433,11.2113961 10.1032433,11.025 L10.0963865,10.956982 L10.0931624,10.8462507 C10.0247081,9.62255373 9.25778371,8.58538265 8.18522666,8.12832813 C8.66449942,7.75799186 8.97314892,7.17754041 8.97314892,6.525 C8.97314892,5.40662338 8.06652554,4.5 6.94814892,4.5 Z M9.47939892,5.0625 L9.47939892,5.7375 C10.0696532,5.7375 10.5481489,6.21599567 10.5481489,6.80625 C10.5481489,7.39650433 10.0696532,7.875 9.47939892,7.875 L9.47939892,8.55 C10.5880137,8.55 11.5045613,9.37233726 11.651361,10.4406322 L11.6509718,10.4569843 C11.6509718,10.6433804 11.8020757,10.7944843 11.9884718,10.7944843 C12.1728418,10.7944843 12.3226827,10.6466474 12.3344785,10.4618968 C12.2317937,9.40890588 11.5598087,8.52274877 10.6305547,8.11605224 C10.9938747,7.79648694 11.2231489,7.3281434 11.2231489,6.80625 C11.2231489,5.84320347 10.4424455,5.0625 9.47939892,5.0625 Z M6.94814892,5.175 C7.69373333,5.175 8.29814892,5.77941559 8.29814892,6.525 C8.29814892,7.26653599 7.7002793,7.86843205 6.96028162,7.87494661 L6.943,7.875 L6.81813491,7.86882008 C6.13354819,7.80340381 5.59814892,7.22672651 5.59814892,6.525 C5.59814892,5.77941559 6.20256451,5.175 6.94814892,5.175 Z" id="normal/user-group-circle-fill" fill="#5DCFFF"></path>
    </g>
</svg>
